<?xml version="1.0" standalone="no"?>
<!DOCTYPE svg PUBLIC "-//W3C//DTD SVG 20010904//EN"
 "http://www.w3.org/TR/2001/REC-SVG-20010904/DTD/svg10.dtd">
<svg version="1.0" xmlns="http://www.w3.org/2000/svg"
 width="412.000000pt" height="80.000000pt" viewBox="0 0 412.000000 80.000000"
 preserveAspectRatio="xMidYMid meet">

<g transform="translate(0.000000,80.000000) scale(0.100000,-0.100000)"
fill="#000000" stroke="none">
<path d="M0 400 l0 -400 2060 0 2060 0 0 400 0 400 -2060 0 -2060 0 0 -400z
m345 178 c60 -79 112 -147 117 -152 4 -6 8 31 8 81 l0 92 -27 3 c-27 3 -28 5
-28 58 l0 55 118 3 117 3 0 -61 0 -60 -30 0 -30 0 0 -241 0 -240 -52 3 -52 3
-116 152 c-63 83 -118 155 -122 159 -5 4 -8 -38 -8 -94 l0 -101 28 -3 c26 -3
27 -5 27 -58 l0 -55 -117 -3 -118 -3 0 61 0 60 30 0 30 0 0 180 0 180 -30 0
-30 0 0 60 0 60 89 0 89 0 107 -142z m3315 -23 c0 -91 3 -165 8 -165 9 1 52
36 52 44 0 3 -7 6 -15 6 -12 0 -15 13 -15 55 l0 55 120 0 120 0 0 -55 c0 -44
-3 -55 -16 -55 -26 0 -105 -62 -99 -78 3 -7 24 -38 47 -68 33 -42 49 -54 70
-54 25 0 28 -3 28 -36 0 -30 3 -34 19 -29 11 3 24 -1 32 -11 11 -14 11 -18 -6
-30 -13 -10 -22 -11 -32 -3 -9 8 -13 8 -13 0 0 -7 -23 -11 -64 -11 l-63 0 -59
76 c-33 43 -62 81 -65 86 -8 12 -49 -12 -49 -28 0 -7 9 -14 21 -17 18 -5 20
-12 17 -59 l-3 -53 -97 -3 -98 -3 0 61 c0 47 3 60 15 60 13 0 15 27 15 185 l0
185 -25 0 c-24 0 -25 3 -25 55 l0 55 90 0 90 0 0 -165z m-1758 -16 c12 -6 18
-6 18 1 0 6 24 10 55 10 l55 0 0 -70 0 -70 -51 0 c-43 0 -54 4 -71 26 -16 20
-28 24 -57 22 -23 -2 -36 -8 -36 -17 0 -17 14 -25 90 -52 36 -14 75 -37 98
-59 33 -33 37 -43 37 -87 0 -109 -113 -165 -227 -114 -35 16 -42 17 -47 5 -4
-9 -21 -14 -56 -14 l-50 0 0 75 0 75 53 0 c45 0 54 -3 62 -22 21 -47 115 -63
115 -19 0 19 -7 23 -112 61 -98 36 -139 111 -102 187 27 54 92 86 158 78 27
-3 58 -11 68 -16z m1086 -6 c55 -26 92 -97 92 -179 l0 -44 -125 0 -125 0 0
-32 c0 -17 7 -40 17 -50 31 -35 113 -15 113 28 0 11 15 14 61 14 l62 0 -7 -32
c-14 -74 -74 -118 -169 -125 -132 -10 -227 82 -227 221 1 107 56 187 147 212
53 15 111 10 161 -13z m433 -8 c45 -29 71 -83 77 -157 l4 -58 -126 0 -126 0 0
-32 c0 -41 25 -68 63 -68 32 0 67 24 67 47 0 9 17 13 61 13 l61 0 -7 -27 c-21
-89 -77 -128 -180 -128 -109 1 -173 43 -203 134 -18 51 -14 140 7 186 21 47
80 102 119 111 15 3 32 7 37 10 25 9 113 -9 146 -31z m-2502 10 c63 -32 101
-104 101 -192 l0 -43 -125 0 -125 0 0 -29 c0 -38 23 -61 62 -61 33 0 68 24 68
47 0 9 16 13 60 13 l60 0 -6 -27 c-21 -91 -75 -128 -186 -128 -69 0 -81 3
-119 30 -60 42 -89 102 -89 182 0 99 43 177 115 209 41 18 149 18 184 -1z
m321 -40 c0 -54 0 -55 -29 -55 l-30 0 26 -76 c14 -41 27 -73 29 -71 3 2 14 37
25 78 53 195 46 181 86 177 l36 -3 39 -115 c21 -63 41 -122 44 -130 4 -9 16
15 30 60 13 41 24 76 24 78 0 1 -11 2 -25 2 -24 0 -25 3 -25 55 l0 55 90 0 90
0 0 -54 c0 -44 -3 -55 -17 -58 -13 -2 -29 -42 -63 -158 l-46 -155 -65 -3 -65
-3 -24 76 c-13 42 -27 78 -31 80 -4 3 -17 -31 -30 -75 l-23 -80 -66 0 -65 0
-53 160 c-45 133 -57 160 -73 160 -16 0 -19 7 -19 55 l0 55 115 0 115 0 0 -55z
m1030 0 c0 -52 -1 -55 -25 -55 -14 0 -25 -2 -25 -4 0 -19 55 -147 58 -136 3 7
19 66 37 129 l32 116 38 0 38 0 39 -115 c21 -63 41 -122 44 -130 4 -9 14 11
25 50 24 84 24 90 -6 90 -24 0 -25 3 -25 55 l0 55 95 0 95 0 0 -55 c0 -46 -3
-55 -18 -55 -14 0 -24 -20 -46 -97 -16 -54 -37 -126 -48 -161 l-19 -62 -64 0
-64 0 -28 86 -27 85 -26 -83 -26 -83 -66 -3 -66 -3 -52 157 c-40 118 -57 158
-71 161 -16 4 -19 15 -19 59 l0 54 110 0 110 0 0 -55z"/>
<path d="M2855 435 c-43 -42 -34 -55 40 -55 58 0 65 2 65 20 0 26 -34 60 -60
60 -12 0 -32 -11 -45 -25z"/>
<path d="M3275 435 c-43 -42 -34 -55 40 -55 58 0 65 2 65 20 0 26 -34 60 -60
60 -12 0 -32 -11 -45 -25z"/>
<path d="M795 435 c-43 -42 -34 -55 40 -55 58 0 65 2 65 19 0 21 -44 61 -67
61 -8 0 -25 -11 -38 -25z"/>
</g>
</svg>
